<svg width="142" height="19" viewBox="0 0 142 19" fill="none" xmlns="http://www.w3.org/2000/svg">
<path d="M17.0129 0.540466H0.5V18.8972H5.09608V12.9251H13.9029L17.9211 18.8972H23.0675L18.6366 12.8976C20.0127 12.6774 21.0035 12.1545 21.609 11.3288C22.2144 10.5032 22.5171 9.18217 22.5171 7.42076V6.04473C22.5171 4.99892 22.4071 4.17333 22.2144 3.54027C22.0217 2.9073 21.6915 2.35687 21.2236 1.86149C20.7282 1.39362 20.1778 1.06337 19.5173 0.843199C18.8568 0.650543 18.0311 0.540466 17.0129 0.540466ZM16.2698 8.87942H5.09608V4.58608H16.2698C16.9028 4.58608 17.3431 4.69618 17.5633 4.88882C17.7834 5.08146 17.9211 5.43925 17.9211 5.9622V7.50339C17.9211 8.05383 17.7834 8.41162 17.5633 8.60426C17.3431 8.79689 16.9028 8.87942 16.2698 8.87942Z" fill="white"/>
<path d="M29.2777 13.4755V0.540466H24.6816V13.3654C24.6816 14.4112 24.7642 15.2644 24.9568 15.8974C25.1495 16.5579 25.4798 17.1083 25.9751 17.5762C26.443 18.0716 26.9935 18.4018 27.6539 18.5945C28.3145 18.8147 29.1401 18.8972 30.186 18.8972H41.1945C42.2128 18.8972 43.0385 18.8147 43.6989 18.5945C44.3594 18.4018 44.9099 18.0716 45.4053 17.5762C45.8732 17.1083 46.2034 16.5579 46.396 15.8974C46.5888 15.2644 46.6988 14.4112 46.6988 13.3654V0.540466H42.1027V13.4755C42.1027 14.0259 41.9651 14.3837 41.745 14.5764C41.5247 14.769 41.0844 14.8515 40.4515 14.8515H30.929C30.2685 14.8515 29.8282 14.769 29.608 14.5764C29.3878 14.3837 29.2777 14.0259 29.2777 13.4755Z" fill="white"/>
<path d="M62.2462 18.8972V4.58608H71.1356V0.540466H48.7607V4.58608H57.6501V18.8972H62.2462Z" fill="white"/>
<path d="M77.7934 13.4755V0.540466H73.1973V13.3654C73.1973 14.4112 73.2799 15.2644 73.4725 15.8974C73.6652 16.5579 73.9954 17.1083 74.4908 17.5762C74.9587 18.0716 75.5091 18.4018 76.1696 18.5945C76.8301 18.8147 77.6558 18.8972 78.7016 18.8972H89.7101C90.7285 18.8972 91.5541 18.8147 92.2146 18.5945C92.8751 18.4018 93.4256 18.0716 93.9209 17.5762C94.3887 17.1083 94.7191 16.5579 94.9117 15.8974C95.1043 15.2644 95.2144 14.4112 95.2144 13.3654V0.540466H90.6184V13.4755C90.6184 14.0259 90.4808 14.3837 90.2606 14.5764C90.0403 14.769 89.6 14.8515 88.9671 14.8515H79.4447C78.7841 14.8515 78.3438 14.769 78.1236 14.5764C77.9035 14.3837 77.7934 14.0259 77.7934 13.4755Z" fill="white"/>
<path d="M118.506 5.87958V5.52188C118.506 3.81553 118.066 2.54953 117.185 1.75141C116.304 0.953285 114.901 0.540466 113.03 0.540466H97.4248V18.8972H113.938C115.809 18.8972 117.212 18.5119 118.094 17.7138C118.974 16.9157 119.414 15.6497 119.414 13.9434V13.558C119.414 11.8518 118.974 10.6408 118.094 9.92523C117.928 9.81513 117.763 9.7326 117.598 9.65007C117.433 9.56744 117.185 9.45743 116.882 9.34733C117.488 9.01701 117.901 8.57668 118.148 8.0813C118.369 7.58592 118.506 6.84286 118.506 5.87958ZM102.021 7.88867V4.58608H112.286C112.947 4.58608 113.387 4.69618 113.608 4.88882C113.827 5.08146 113.938 5.43925 113.938 5.9622V6.51264C113.938 7.06307 113.827 7.42076 113.608 7.6135C113.387 7.80614 112.947 7.88867 112.286 7.88867H102.021ZM102.021 14.8515V11.5491H113.222C113.855 11.5491 114.295 11.6591 114.516 11.8518C114.735 12.0444 114.873 12.4022 114.873 12.9251V13.4755C114.873 14.0259 114.735 14.3837 114.516 14.5764C114.295 14.769 113.855 14.8515 113.222 14.8515H102.021Z" fill="white"/>
<path d="M125.648 4.58608H140.675V0.540466H121.052V18.8972H141.417V14.8515H125.648V11.7417H140.316L140.675 7.69603H125.648V4.58608Z" fill="white"/>
</svg>
